<svg width="97" height="32" viewBox="0 0 97 32" fill="none" xmlns="http://www.w3.org/2000/svg">
<g clip-path="url(#clip0_744_1489)">
<path d="M96.2921 17.2334C95.1976 17.6726 94.2797 19.5635 94.2797 21.2333V28.4872C91.3046 30.5963 86.7108 32.2675 81.3729 32.2675C69.0944 32.2675 64.6194 23.9534 64.576 15.7701L58.8935 31.9592H58.2797L49.2673 10.5061L40.3868 31.9592H39.7729L26.6967 3.95045C26.1727 2.67481 24.8682 0.366446 23.6347 0.193355V-0.314281H39.5601V0.193355C37.8011 0.404264 36.1043 2.19045 37.2408 4.69663L44.2798 20.2646L48.8301 9.4079L46.6483 4.21226C45.9925 2.67481 44.6866 0.401355 43.4546 0.193355V-0.314281H59.38V0.193355C57.382 0.298082 56.1862 2.05954 57.1055 4.69663L62.4376 19.341L65.1334 11.6552C66.9431 5.07772 73.0714 -0.318645 81.066 -0.318645L91.4015 -0.324463L92.8768 10.1134H92.2412C90.7949 6.60499 88.7869 2.28354 83.5851 0.8959C81.176 0.254446 78.667 1.27699 77.422 3.44572C76.1059 5.73808 75.0954 9.54608 75.0723 15.6508C75.0288 28.4435 77.6102 31.6072 81.4598 31.6072C83.2984 31.6072 84.4349 31.2566 85.9667 30.0697V21.2333C85.9667 19.5635 85.0473 17.6726 83.9543 17.2334V16.925H96.2921V17.2334ZM23.3264 31.9592H9.9389V31.4559C11.032 31.0181 11.9947 29.5257 11.9947 27.6523V0.484264C4.85003 0.974446 2.4453 6.08135 0.781824 10.1134H0.147705L1.62297 -0.324463H11.9947H12.9517H21.314V27.6523C21.314 29.6304 22.2333 31.0181 23.3264 31.4559V31.9592Z" fill="#1764FF"/>
</g>
<defs>
<clipPath id="clip0_744_1489">
<rect width="97" height="32" fill="white"/>
</clipPath>
</defs>
</svg>
